<svg xmlns="http://www.w3.org/2000/svg" width="400" height="400" viewBox="0 0 124 124" fill="none">

<path fill-rule="evenodd" clip-rule="evenodd" d="M34.2578 41.9949C33.7321 41.608 33.7023 40.9533 34.1884 40.507L34.4463 40.2689H38.2356H42.0249L42.2828 40.507C42.6498 40.8541 42.7192 41.2212 42.4911 41.6477C42.2332 42.1338 41.8562 42.2429 40.3981 42.2429L39.1779 42.2528V45.8338V49.4147L38.8903 49.7024C38.4836 50.0992 37.9876 50.0992 37.5809 49.7024L37.2932 49.4147V45.8437V42.2726L35.9144 42.233C34.7042 42.2032 34.4959 42.1734 34.2578 41.9949ZM11.1057 40.4574C10.4114 40.6756 10.1634 40.8045 9.62772 41.241C9.01271 41.7469 8.46713 42.6198 8.28858 43.4432C8.11002 44.2169 8.08027 45.8338 8.22906 46.6273C8.46713 47.8971 9.36981 49.0477 10.58 49.6231C11.2049 49.9207 11.324 49.9405 12.306 49.9405C13.3079 49.9405 13.3773 49.9306 14.0915 49.5735C14.4883 49.3751 14.9843 49.0477 15.1728 48.8493C15.8671 48.1252 15.52 47.1134 14.5776 47.1134C14.2899 47.1134 14.1015 47.1928 13.8634 47.4011C13.3376 47.8574 12.9111 48.026 12.2961 48.026C11.3934 48.026 10.6098 47.5102 10.2725 46.6968C10.0939 46.2702 10.0543 44.3161 10.213 43.7407C10.3419 43.2547 10.8677 42.6595 11.3438 42.4413C12.1572 42.0743 13.0698 42.233 13.9725 42.8976C14.3594 43.1853 14.5776 43.2051 14.9744 42.9968C15.5596 42.6893 15.6588 41.9751 15.1827 41.4295C14.3296 40.4673 12.4647 40.0209 11.1057 40.4574ZM30.1514 36.7772C30.1613 35.9935 30.2902 35.6563 30.6573 35.448C31.0342 35.2396 31.4112 35.2793 31.7484 35.5868C32.0163 35.8249 32.0658 35.9439 32.1055 36.5094C32.1452 36.9954 32.1154 37.2533 31.9964 37.5112C31.6889 38.1461 30.935 38.285 30.439 37.7989C30.1712 37.5311 30.1514 37.4517 30.1514 36.7772ZM19.0309 35.5868C18.7631 35.8249 18.7135 35.9439 18.6738 36.5094C18.6341 36.9954 18.6639 37.2533 18.7829 37.5112C19.0706 38.1064 19.8046 38.275 20.3006 37.8485C20.5387 37.6402 20.5784 37.5311 20.6081 36.9061C20.6577 36.0729 20.5188 35.6563 20.1221 35.4579C19.7054 35.2396 19.3781 35.2793 19.0309 35.5868ZM7.28634 17.2059L7.17622 17.246C7.00809 17.3072 6.87792 17.3547 6.86972 17.3547C6.8598 17.3547 5.35202 18.9616 3.52682 20.9356C0.00536272 24.715 -0.103753 24.8737 0.0351216 25.6276C0.114478 26.0343 0.491423 26.5204 0.898126 26.7287C1.0866 26.8279 1.4933 26.8775 2.16783 26.8775H3.15979L3.18955 31.4504L3.21931 36.0233L3.54666 36.311C3.89384 36.6185 4.20135 36.6681 4.60805 36.4796L4.61386 36.477C4.69342 36.4408 4.76125 36.41 4.81909 36.366C5.15363 36.1117 5.15363 35.4173 5.15363 30.7064V25.5879L4.86596 25.2705C4.59813 24.963 4.55845 24.9531 3.57641 24.9035L2.5547 24.8439L5.16355 22.0367C6.59197 20.4992 7.79224 19.2493 7.83192 19.2592C7.86168 19.2791 9.05203 20.5388 10.4804 22.0665L13.0595 24.8439L12.4544 24.8638C11.3534 24.9134 10.9963 24.9927 10.7483 25.2606L10.5102 25.5185V30.7659V36.0233L10.8078 36.3209C11.0855 36.5887 11.1649 36.6185 11.5319 36.5689C11.8097 36.5292 12.018 36.43 12.1668 36.2515L12.3949 35.9936V31.4306V26.8775H13.4166C14.5772 26.8775 14.9641 26.7386 15.351 26.1831C15.6386 25.7566 15.6486 24.9729 15.3807 24.5464C15.103 24.1099 8.95283 17.5332 8.64533 17.3348C8.24854 17.0868 7.73272 17.0372 7.28634 17.2059ZM24.4871 0.193722C24.2788 0.302837 22.6619 2.00901 20.4201 4.46906L19.6479 5.32078C14.1017 11.4383 13.8113 11.7587 13.7187 12.1285C13.7136 12.1489 13.7091 12.1695 13.7043 12.1912L13.7043 12.1913C13.6986 12.2172 13.6925 12.2449 13.6847 12.2758C13.5359 12.9007 13.6748 13.4562 14.1013 13.9423C14.6568 14.5672 14.8254 14.6168 16.8292 14.6565L18.6445 14.6962L18.6643 22.2351L18.6941 29.7739L19.0214 30.0616C19.3686 30.3691 19.6761 30.4187 20.0828 30.2302C20.1 30.2224 20.1167 30.215 20.1329 30.2079L20.1331 30.2078C20.1876 30.1838 20.2361 30.1624 20.2793 30.1332C20.629 29.8963 20.629 29.143 20.6284 22.2902L20.6284 21.4216V13.2677L20.3308 12.9702L20.0332 12.6726L17.8509 12.7122C16.6506 12.7222 15.6686 12.7122 15.6686 12.6825C15.6686 12.6527 17.841 10.2224 20.4895 7.27631L22.5005 5.04677C24.1593 3.20758 25.3257 1.91437 25.3402 1.89989C25.3501 1.88997 27.582 4.30043 30.2901 7.25647L35.2102 12.6428L32.9088 12.6924C31.6391 12.7222 30.5877 12.7618 30.5678 12.7718C30.5617 12.7779 30.5214 12.8409 30.4658 12.9279C30.4315 12.9817 30.3912 13.0446 30.3496 13.109C30.1611 13.4265 30.1512 13.6348 30.1512 21.501L30.1511 22.3618C30.1506 29.1457 30.1505 29.8961 30.4992 30.1326C30.5425 30.162 30.5913 30.1835 30.6461 30.2076L30.6701 30.2182L30.6968 30.2302C31.1035 30.4187 31.411 30.3691 31.7582 30.0616L32.0855 29.7739L32.1153 22.2351L32.1351 14.6962L33.9504 14.6565C35.9541 14.6168 36.1228 14.5672 36.6783 13.9423C37.1048 13.4562 37.2437 12.9007 37.0949 12.2857C37.0868 12.2532 37.0805 12.2242 37.0747 12.1971L37.0678 12.1651C37.0649 12.1524 37.0621 12.14 37.059 12.1277C36.9694 11.7701 36.6884 11.4604 31.9487 6.23575L30.796 4.96504C27.9193 1.79078 26.4909 0.292915 26.2429 0.163963C25.7667 -0.0641861 24.9434 -0.0542679 24.4871 0.193722ZM41.7269 17.682C41.955 17.4539 42.2824 17.2257 42.4708 17.1662C42.8279 17.0571 43.3239 17.1067 43.7207 17.2852C43.8596 17.3447 45.4566 19.0013 47.2818 20.9555C50.7735 24.715 50.8826 24.8737 50.7438 25.6276C50.6644 26.0343 50.2875 26.5204 49.8808 26.7287C49.6923 26.8279 49.2856 26.8775 48.6111 26.8775H47.6191L47.5893 31.4504L47.5596 36.0233L47.2322 36.311C46.885 36.6185 46.5775 36.6681 46.1708 36.4796L46.1679 36.4783C46.0866 36.4413 46.0175 36.4099 45.9587 36.365C45.6253 36.1099 45.6253 35.4189 45.6253 30.8056C45.6253 27.8694 45.6649 25.697 45.7245 25.5482C45.8832 25.1118 46.2601 24.963 47.2818 24.9035L48.2242 24.8439L45.6153 22.0367C44.1869 20.4992 42.9866 19.2493 42.947 19.2592C42.9172 19.2791 41.7269 20.5388 40.2984 22.0665L37.7193 24.8439L38.6815 24.9035C39.8124 24.963 40.11 25.1019 40.2687 25.6574C40.348 25.9153 40.3679 27.6016 40.348 31.0239L40.3183 36.0233L39.981 36.3209C39.6933 36.5788 39.5942 36.6185 39.237 36.5689C38.9692 36.5292 38.751 36.4201 38.6121 36.2515L38.384 35.9936V31.4306V26.8775H37.3622C36.2016 26.8775 35.8148 26.7386 35.4378 26.1831C35.1799 25.8161 35.1303 25.0027 35.3386 24.6257C35.4478 24.4372 40.7448 18.674 41.7269 17.682ZM19.2595 31.0933C18.8032 31.2917 18.6445 31.7381 18.6445 32.8292C18.6445 34.1882 18.8925 34.6147 19.6861 34.6147C19.9539 34.6147 20.1226 34.5354 20.3408 34.3271C20.6284 34.0394 20.6284 34.0295 20.6284 32.8391C20.6284 31.6686 20.6185 31.6389 20.3606 31.3512C20.0234 30.9842 19.6861 30.9048 19.2595 31.0933ZM30.3597 31.4008C30.4787 31.252 30.6672 31.0834 30.7862 31.0437C31.0739 30.9247 31.1036 30.9247 31.5004 31.0933C31.9766 31.2917 32.1353 31.7083 32.1353 32.8292C32.1353 34.1882 31.8873 34.6147 31.0937 34.6147C30.8259 34.6147 30.6573 34.5354 30.439 34.3271C30.1514 34.0394 30.1514 34.0295 30.1514 32.8491C30.1514 31.7877 30.1712 31.6389 30.3597 31.4008ZM17.3451 42.0941C17.8312 41.36 18.5851 40.7847 19.4282 40.4871C19.9738 40.2986 20.2317 40.2689 20.9558 40.2986C21.7097 40.3383 21.928 40.3879 22.5529 40.7054C23.4357 41.1418 24.0904 41.8064 24.5269 42.7289L24.8443 43.3936V45.1394V46.8753L24.4674 47.6292C24.0111 48.5617 23.1878 49.3751 22.3446 49.7024C21.8784 49.8909 21.5808 49.9306 20.7277 49.9405C19.7357 49.9405 19.6465 49.9207 18.9918 49.6032C18.1089 49.1668 17.4344 48.4823 17.0277 47.6292C16.7202 46.9845 16.7103 46.9249 16.6805 45.3576C16.6408 43.4828 16.74 43.0067 17.3451 42.0941ZM22.7513 43.5126C22.5231 43.0662 22.1264 42.6595 21.6998 42.4413C21.4618 42.3222 21.1245 42.2528 20.7575 42.2528C19.7655 42.2528 19.0215 42.7785 18.6843 43.711C18.5256 44.1574 18.5057 45.9131 18.6446 46.429C18.9124 47.3713 19.7457 48.026 20.6979 48.026C21.6304 48.0359 22.295 47.6292 22.7215 46.796C22.9794 46.2901 22.9993 44.0086 22.7513 43.5126ZM28.4149 40.3582C27.4527 40.6161 26.5996 41.2906 26.2227 42.104C25.7366 43.1357 26.0045 44.3756 26.8774 45.1592C27.413 45.6552 27.7503 45.7842 29.149 46.0719C30.1509 46.2802 30.3294 46.3496 30.5774 46.6174C30.8849 46.9646 30.9147 47.1729 30.6865 47.4904C30.498 47.7681 30.2104 47.9169 29.7045 48.0161C29.1093 48.1351 28.5836 47.9467 28.0479 47.4507C27.6809 47.1134 27.5023 47.0142 27.2444 47.0142C26.8476 47.0142 26.4112 47.3217 26.2723 47.6887C26.0541 48.2542 26.7187 49.1271 27.7702 49.6627C28.2661 49.9107 28.4149 49.9405 29.3573 49.9405C30.3393 49.9405 30.4385 49.9207 31.0635 49.6131C31.7876 49.256 32.3133 48.7204 32.5911 48.0458C32.7994 47.5499 32.7994 46.5777 32.5911 46.0917C32.3728 45.6056 31.8074 44.9807 31.3015 44.6831C30.9444 44.4847 29.8136 44.1772 28.7423 43.9987C28.5042 43.959 28.286 43.83 28.1273 43.6316C27.8297 43.2844 27.8197 43.2249 28.0181 42.8579C28.4149 42.0842 30.2104 42.0445 30.7064 42.7984C30.7857 42.9273 30.9841 43.0761 31.1428 43.1456C31.9364 43.4729 32.7795 42.6298 32.4026 41.8858C32.1844 41.4592 31.4007 40.7847 30.8651 40.5466C30.3592 40.3185 28.9605 40.2094 28.4149 40.3582Z" fill="#47D0B6"></path>
</svg>